<?xml version="1.0" encoding="UTF-8" standalone="no"?>
<!-- Created with Inkscape (http://www.inkscape.org/) -->

<svg
   xmlns:dc="http://purl.org/dc/elements/1.1/"
   xmlns:cc="http://creativecommons.org/ns#"
   xmlns:rdf="http://www.w3.org/1999/02/22-rdf-syntax-ns#"
   xmlns:svg="http://www.w3.org/2000/svg"
   xmlns="http://www.w3.org/2000/svg"
   xmlns:sodipodi="http://sodipodi.sourceforge.net/DTD/sodipodi-0.dtd"
   xmlns:inkscape="http://www.inkscape.org/namespaces/inkscape"
   version="1.1"
   id="svg2"
   xml:space="preserve"
   width="718.73334"
   height="108.16"
   viewBox="0 0 718.73334 108.16"
   sodipodi:docname="mpilogo-inf-wide.svg"
   inkscape:version="0.92.1 r15371"><metadata
     id="metadata8"><rdf:RDF><cc:Work
         rdf:about=""><dc:format>image/svg+xml</dc:format><dc:type
           rdf:resource="http://purl.org/dc/dcmitype/StillImage" /><dc:title></dc:title></cc:Work></rdf:RDF></metadata><defs
     id="defs6" /><sodipodi:namedview
     pagecolor="#ffffff"
     bordercolor="#666666"
     borderopacity="1"
     objecttolerance="10"
     gridtolerance="10"
     guidetolerance="10"
     inkscape:pageopacity="0"
     inkscape:pageshadow="2"
     inkscape:window-width="1918"
     inkscape:window-height="1042"
     id="namedview4"
     showgrid="false"
     inkscape:zoom="1.4515119"
     inkscape:cx="235.35804"
     inkscape:cy="54.080002"
     inkscape:window-x="0"
     inkscape:window-y="18"
     inkscape:window-maximized="0"
     inkscape:current-layer="g10" /><g
     id="g10"
     inkscape:groupmode="layer"
     inkscape:label="ink_ext_XXXXXX"
     transform="matrix(1.3333333,0,0,-1.3333333,0,108.16)"><g
       id="g12"
       transform="scale(0.1)"><path
         d="m 2709.8,357.168 h 228.977 V 810.711 H 2709.8 Z"
         style="fill:#666d8d;fill-opacity:1;fill-rule:nonzero;stroke:none"
         id="path14"
         inkscape:connector-curvature="0" /><path
         d="m 3213.53,357.18 v 6.332 H 3197.3 V 468.84 c -9.89,-2.481 -20.63,-2.75 -30.8,-2.75 h -9.07 v -6.32 h 18.42 v -96.25 h -18.42 v -6.329 h 56.1 z m -40.43,168.308 c 0,-7.976 5.23,-14.566 13.2,-14.566 7.99,0 14.02,6.047 14.02,14.566 0,7.153 -7.43,13.203 -14.02,13.203 -6.87,0 -13.2,-6.05 -13.2,-13.203"
         style="fill:#161a3c;fill-opacity:1;fill-rule:evenodd;stroke:none"
         id="path16"
         inkscape:connector-curvature="0" /><path
         d="m 3259.23,363.5 h -15.12 v -6.328 h 51.43 v 6.328 h -14.86 v 51.148 c 0,20.633 14.3,46.204 33,46.204 11,0 17.33,-3.024 17.33,-23.102 V 363.5 h -14.3 v -6.328 h 50.61 v 6.328 h -14.86 v 77.828 c 0,25.301 -22.82,27.5 -32.73,27.5 -20.07,0 -30.79,-11.816 -38.52,-29.148 h -0.53 v 29.148 c -4.95,-1.109 -10.18,-1.93 -15.39,-2.199 -4.97,-0.551 -10.18,-0.551 -15.41,-0.551 h -5.77 v -6.316 h 15.12 v -96.25"
         style="fill:#161a3c;fill-opacity:1;fill-rule:nonzero;stroke:none"
         id="path18"
         inkscape:connector-curvature="0" /><path
         d="m 3429.05,466.078 v 31.094 c 0,27.5 8.54,43.449 21.72,43.449 1.94,0 6.61,-0.269 6.61,-1.652 0,-3.578 -2.19,-3.848 -2.19,-6.867 0,-7.43 3.85,-12.661 11.27,-12.661 4.67,0 10.17,3.579 10.17,9.079 0,12.921 -12.38,17.878 -23.1,17.878 -26.41,0 -45.94,-19.796 -45.94,-66.828 v -13.48 h -21.17 v -6.32 h 21.17 v -96.25 h -21.17 v -6.329 h 64.92 v 6.329 h -22.29 v 96.25 h 22.29 v 6.32 h -22.29"
         style="fill:#161a3c;fill-opacity:1;fill-rule:nonzero;stroke:none"
         id="path20"
         inkscape:connector-curvature="0" /><path
         d="m 3533.33,468.84 c -28.88,0 -53.08,-24.199 -53.08,-57.481 0,-33.281 24.2,-57.75 53.08,-57.75 28.88,0 53.09,24.469 53.09,57.75 0,33.282 -24.21,57.481 -53.09,57.481 z m 0,-5.512 c 27.78,0 28.05,-29.148 28.05,-51.976 0,-23.09 -0.27,-52.25 -28.05,-52.25 -27.78,0 -28.04,29.16 -28.04,52.25 0,22.828 0.26,51.976 28.04,51.976"
         style="fill:#161a3c;fill-opacity:1;fill-rule:evenodd;stroke:none"
         id="path22"
         inkscape:connector-curvature="0" /><path
         d="m 3650.54,468.84 c -9.9,-2.481 -20.63,-2.75 -30.81,-2.75 h -8.53 v -6.32 h 18.71 v -96.25 h -18.71 v -6.329 h 61.35 v 6.329 h -21.19 v 52.25 c 0,11.011 3.03,21.73 6.87,29.699 6.06,12.383 15.41,16.23 15.69,16.23 0.81,0 2.46,0 2.46,-1.66 0,-1.098 -1.09,-3.57 -1.09,-5.769 0,-5.5 5.78,-11 10.72,-11 5.78,0 12.93,3.289 12.93,10.179 0,10.449 -7.42,15.403 -16.78,15.403 -15.12,0 -26.11,-13.481 -31.07,-25.864 h -0.55 v 25.864"
         style="fill:#161a3c;fill-opacity:1;fill-rule:nonzero;stroke:none"
         id="path24"
         inkscape:connector-curvature="0" /><path
         d="m 3886.55,363.5 v 73.148 c 0,28.332 -19.53,32.18 -29.7,32.18 -17.87,0 -29.14,-10.719 -37.96,-25.859 h -0.54 c -1.66,16.5 -13.75,25.859 -29.43,25.859 -20.08,0 -27.5,-10.719 -37.13,-26.129 h -0.56 v 26.129 c -9.89,-2.476 -20.61,-2.75 -30.79,-2.75 h -4.39 v -6.316 h 13.75 v -96.25 h -13.75 v -6.332 h 50.59 v 6.332 h -15.41 v 51.976 c 0,20.903 13.75,45.383 30.81,45.383 8.81,0 15.41,-6.32 15.41,-19.25 v -78.109 h -14.59 v -6.332 h 50.6 v 6.332 h -14.57 v 57.75 c 0,15.117 13.75,39.597 30.81,39.597 8.81,0 15.41,-6.32 15.41,-19.25 V 363.5 h -15.41 v -6.328 h 50.6 v 6.328 h -13.75"
         style="fill:#161a3c;fill-opacity:1;fill-rule:nonzero;stroke:none"
         id="path26"
         inkscape:connector-curvature="0" /><path
         d="m 4032.89,376.148 c -1.35,-4.668 -4.11,-12.367 -9.6,-12.367 -5.78,0 -5.78,4.391 -5.78,12.66 v 65.618 c 0,10.921 0,26.781 -37.4,26.781 -32.73,0 -44,-16.41 -44,-26.231 0,-7.64 4.12,-13.089 11.53,-13.089 6.88,0 11.27,4.628 11.27,11.449 0,9 -8.23,10.371 -8.23,12.551 0,7.91 19.53,9.82 25.55,9.82 9.64,0 19.82,-3.82 19.82,-16.641 v -26.258 c -42.07,0 -68.21,-14.3 -69.03,-39.882 0,-20.348 14.85,-26.95 32.17,-26.95 14.04,0 27.79,5.219 37.15,16.782 1.91,-10.18 7.7,-16.782 17.87,-16.782 12.66,0 22.54,9.629 23.38,22.551 h -4.7 z m -36.84,12.93 c 0,-11.547 -3.85,-14.578 -6.04,-16.769 -6.6,-5.778 -12.38,-7.981 -21.19,-7.981 -12.64,0 -21.18,8.25 -21.18,21.731 0,25.3 30.54,28.32 48.41,28.601 v -25.582"
         style="fill:#161a3c;fill-opacity:1;fill-rule:evenodd;stroke:none"
         id="path28"
         inkscape:connector-curvature="0" /><path
         d="m 4055.77,459.762 h 15.69 v -82.231 c 0,-13.203 2.18,-23.929 21.99,-23.929 11.01,0 24.49,6.32 29.71,16.777 l -4.4,3.031 c -4.39,-5.23 -8.26,-10.18 -15.41,-10.18 -10.46,0 -10.46,7.418 -10.46,12.379 v 84.153 h 24.21 v 6.316 h -24.21 v 34.934 c -6.86,-1.102 -13.75,-1.102 -20.89,-1.102 v -33.832 h -16.23 v -6.316"
         style="fill:#161a3c;fill-opacity:1;fill-rule:nonzero;stroke:none"
         id="path30"
         inkscape:connector-curvature="0" /><path
         d="m 4203.23,357.18 v 6.332 H 4187 V 468.84 c -9.9,-2.481 -20.62,-2.75 -30.8,-2.75 h -9.08 v -6.32 h 18.43 v -96.25 h -18.43 v -6.329 h 56.11 z m -40.43,168.308 c 0,-7.976 5.24,-14.566 13.21,-14.566 7.97,0 14.02,6.047 14.02,14.566 0,7.153 -7.42,13.203 -14.02,13.203 -6.88,0 -13.21,-6.05 -13.21,-13.203"
         style="fill:#161a3c;fill-opacity:1;fill-rule:evenodd;stroke:none"
         id="path32"
         inkscape:connector-curvature="0" /><path
         d="m 4316.87,459.762 v -0.821 l -46.49,-39.613 45.94,-55.816 h -13.75 v -6.332 h 52.25 v 6.332 h -11.55 l -52.26,63.258 37.97,33 h 16.77 v 6.32 h -45.11 v -6.32 h 16.23 z M 4286.61,357.18 v 6.332 h -16.5 v 185.636 c -9.9,-1.929 -20.63,-2.476 -30.81,-2.476 h -4.93 v -6.32 h 14.29 v -176.84 h -14.29 v -6.332 h 52.24"
         style="fill:#161a3c;fill-opacity:1;fill-rule:evenodd;stroke:none"
         id="path34"
         inkscape:connector-curvature="0" /><path
         d="m 3327.12,613.012 v 73.16 c 0,28.316 -19.53,32.18 -29.71,32.18 -17.87,0 -29.16,-10.731 -37.95,-25.864 h -0.54 c -1.66,16.5 -13.75,25.864 -29.44,25.864 -20.07,0 -27.5,-10.731 -37.12,-26.133 h -0.56 v 26.133 c -9.89,-2.481 -20.62,-2.75 -30.79,-2.75 h -4.42 v -6.321 h 13.75 V 613.02 h -13.75 v -6.321 h 50.61 v 6.321 h -15.4 V 665 c 0,20.898 13.75,45.379 30.81,45.379 8.78,0 15.41,-6.32 15.41,-19.25 V 613.02 h -14.59 v -6.321 h 50.61 v 6.321 h -14.58 v 57.761 c 0,15.129 13.75,39.598 30.81,39.598 8.8,0 15.39,-6.32 15.39,-19.25 V 613.02 h -15.39 v -6.321 h 50.6 v 6.321 h -13.75"
         style="fill:#161a3c;fill-opacity:1;fill-rule:nonzero;stroke:none"
         id="path36"
         inkscape:connector-curvature="0" /><path
         d="m 3473.46,625.66 c -1.36,-4.68 -4.11,-12.371 -9.62,-12.371 -5.77,0 -5.77,4.402 -5.77,12.66 v 65.629 c 0,10.91 0,26.781 -37.39,26.781 -32.74,0 -44.04,-16.41 -44.04,-26.238 0,-7.633 4.15,-13.09 11.57,-13.09 6.88,0 11.27,4.641 11.27,11.457 0,9 -8.25,10.371 -8.25,12.551 0,7.91 19.52,9.82 25.57,9.82 9.64,0 19.81,-3.82 19.81,-16.64 v -26.258 c -42.07,0 -68.2,-14.301 -69.02,-39.883 0,-20.348 14.84,-26.949 32.17,-26.949 14.04,0 27.77,5.223 37.13,16.781 1.93,-10.18 7.68,-16.781 17.89,-16.781 12.63,0 22.54,9.633 23.38,22.551 h -4.7 z m -36.85,12.93 c 0,-11.551 -3.84,-14.57 -6.06,-16.781 -6.59,-5.778 -12.35,-7.969 -21.16,-7.969 -12.66,0 -21.18,8.25 -21.18,21.719 0,25.312 30.52,28.332 48.4,28.613 V 638.59"
         style="fill:#161a3c;fill-opacity:1;fill-rule:evenodd;stroke:none"
         id="path38"
         inkscape:connector-curvature="0" /><path
         d="m 3534.55,613.012 h -14.84 l 26.68,39.328 25.57,-39.328 h -14.29 v -6.321 h 50.88 v 6.321 h -13.48 l -37.4,56.379 28.06,39.879 h 15.66 v 6.32 h -39.32 v -6.32 h 15.39 l -23.64,-34.379 -22.54,34.379 h 14.85 v 6.32 h -51.45 v -6.32 h 14.59 L 3542.55,658.109 3511.2,613 h -16.52 v -6.32 h 39.87 V 613"
         style="fill:#161a3c;fill-opacity:1;fill-rule:nonzero;stroke:none"
         id="path40"
         inkscape:connector-curvature="0" /><path
         d="m 3710.87,550.852 h -16.23 v -6.321 h 56.37 v 6.321 h -18.69 v 70.679 h 0.54 c 6.87,-11.82 17.05,-18.429 31.9,-18.429 34.12,0 52.26,28.32 52.26,55.277 0,43.449 -29.98,59.961 -51.15,59.961 -13.75,0 -26.41,-7.699 -33.55,-21.18 l -0.55,-0.269 v 21.449 c -4.97,-1.11 -10.18,-1.93 -15.68,-2.211 -5.22,-0.551 -10.45,-0.551 -15.7,-0.551 h -5.75 v -6.316 h 16.23 V 550.84 Z m 22.54,130.089 c 4.12,26.68 25.04,30.797 30.25,30.797 20.36,0 28.34,-12.929 28.34,-52.527 0,-50.051 -15.13,-50.602 -29.16,-50.602 -7.96,0 -20.36,6.879 -25.02,15.95 -4.41,8.25 -5.5,12.929 -5.5,31.07 0,7.98 -0.28,16.23 1.09,25.301"
         style="fill:#161a3c;fill-opacity:1;fill-rule:evenodd;stroke:none"
         id="path42"
         inkscape:connector-curvature="0" /><path
         d="M 3906.54,606.68 V 613 h -21.18 v 185.641 c -9.9,-1.93 -20.63,-2.481 -30.81,-2.481 h -11.82 v -6.32 h 21.19 V 613 h -21.19 v -6.32 h 63.81"
         style="fill:#161a3c;fill-opacity:1;fill-rule:nonzero;stroke:none"
         id="path44"
         inkscape:connector-curvature="0" /><path
         d="m 4039.96,625.66 c -1.37,-4.68 -4.11,-12.371 -9.62,-12.371 -5.79,0 -5.79,4.402 -5.79,12.66 v 65.629 c 0,10.91 0,26.781 -37.39,26.781 -32.71,0 -44,-16.41 -44,-26.238 0,-7.633 4.14,-13.09 11.54,-13.09 6.89,0 11.28,4.641 11.28,11.457 0,9 -8.25,10.371 -8.25,12.551 0,7.91 19.53,9.82 25.57,9.82 9.64,0 19.82,-3.82 19.82,-16.64 v -26.258 c -42.07,0 -68.21,-14.301 -69.05,-39.883 0,-20.348 14.87,-26.949 32.19,-26.949 14.03,0 27.78,5.223 37.13,16.781 1.93,-10.18 7.7,-16.781 17.87,-16.781 12.66,0 22.56,9.633 23.38,22.551 h -4.68 z m -36.84,12.93 c 0,-11.551 -3.85,-14.57 -6.07,-16.781 -6.59,-5.778 -12.37,-7.969 -21.16,-7.969 -12.66,0 -21.19,8.25 -21.19,21.719 0,25.312 30.55,28.332 48.42,28.613 V 638.59"
         style="fill:#161a3c;fill-opacity:1;fill-rule:evenodd;stroke:none"
         id="path46"
         inkscape:connector-curvature="0" /><path
         d="m 4080.98,613.012 h -15.11 v -6.321 h 51.43 v 6.321 h -14.85 v 51.16 c 0,20.629 14.3,46.199 32.99,46.199 11.02,0 17.35,-3.019 17.35,-23.101 v -74.258 h -14.33 v -6.321 h 50.61 v 6.321 h -14.84 v 77.84 c 0,25.296 -22.84,27.5 -32.73,27.5 -20.08,0 -30.8,-11.821 -38.5,-29.161 h -0.55 v 29.161 c -4.97,-1.114 -10.17,-1.93 -15.41,-2.211 -4.97,-0.551 -10.17,-0.551 -15.41,-0.551 h -5.76 v -6.32 h 15.11 v -96.258"
         style="fill:#161a3c;fill-opacity:1;fill-rule:nonzero;stroke:none"
         id="path48"
         inkscape:connector-curvature="0" /><path
         d="m 4311.32,640.789 c -6.61,-19.801 -22.02,-32.73 -37.95,-31.898 -14.3,0.82 -22.83,6.597 -26.96,15.679 -1.63,3.852 -5.77,16.5 -5.77,33 0,36.032 6.87,55.282 33.27,55.282 6.05,0 23.39,-3.032 23.39,-10.454 0,-3.027 -8.82,-4.398 -8.82,-15.117 0,-7.972 5.52,-12.929 12.93,-12.929 7.7,0 12.39,7.148 12.39,14.57 0,21.18 -25.32,29.43 -43.18,29.43 -15.69,0 -55,-11.821 -55,-60.793 0,-18.981 12.93,-54.45 55.54,-54.45 28.62,1.102 39.61,18.153 45.94,37.68 h -5.78"
         style="fill:#161a3c;fill-opacity:1;fill-rule:evenodd;stroke:none"
         id="path50"
         inkscape:connector-curvature="0" /><path
         d="m 4430.71,709.27 v -0.829 l -46.46,-39.601 45.92,-55.828 h -13.75 v -6.321 h 52.26 v 6.321 h -11.56 l -52.24,63.258 37.94,33 h 16.78 v 6.32 h -45.1 v -6.32 z M 4400.46,606.68 V 613 h -16.48 v 185.641 c -9.91,-1.93 -20.63,-2.481 -30.8,-2.481 h -4.97 v -6.32 h 14.3 V 613 h -14.3 v -6.32 h 52.25"
         style="fill:#161a3c;fill-opacity:1;fill-rule:evenodd;stroke:none"
         id="path52"
         inkscape:connector-curvature="0" /><path
         d="M 4617.28,606.68 V 613 h -16.23 v 105.34 c -9.89,-2.481 -20.64,-2.75 -30.8,-2.75 h -9.07 v -6.32 h 18.42 v -96.258 h -18.42 v -6.321 h 56.1 z M 4576.85,775 c 0,-7.98 5.23,-14.578 13.2,-14.578 7.99,0 14.02,6.047 14.02,14.578 0,7.148 -7.43,13.199 -14.02,13.199 -6.87,0 -13.2,-6.051 -13.2,-13.199"
         style="fill:#161a3c;fill-opacity:1;fill-rule:evenodd;stroke:none"
         id="path54"
         inkscape:connector-curvature="0" /><path
         d="m 4662.98,613.012 h -15.12 v -6.321 h 51.43 v 6.321 h -14.86 v 51.16 c 0,20.629 14.3,46.199 33,46.199 11,0 17.33,-3.019 17.33,-23.101 v -74.258 h -14.3 v -6.321 h 50.61 v 6.321 h -14.86 v 77.84 c 0,25.296 -22.82,27.5 -32.73,27.5 -20.07,0 -30.79,-11.821 -38.5,-29.161 h -0.55 v 29.161 c -4.95,-1.114 -10.18,-1.93 -15.39,-2.211 -4.97,-0.551 -10.18,-0.551 -15.41,-0.551 h -5.77 v -6.32 h 15.12 v -96.258"
         style="fill:#161a3c;fill-opacity:1;fill-rule:nonzero;stroke:none"
         id="path56"
         inkscape:connector-curvature="0" /><path
         d="m 4868,715.59 -4.95,-7.43 c -8.53,6.879 -17.04,10.18 -25.59,10.18 -29.95,0 -37.12,-22.281 -37.12,-33.828 0,-23.934 15.96,-26.41 34.12,-30.801 22.82,-5.781 37.93,-10.731 37.93,-21.449 0,-14.301 -14.29,-23.66 -26.66,-23.66 -20.35,0 -33.82,14.578 -39.06,34.378 h -6.33 v -36.3 h 6.05 l 6.06,9.89 c 7.97,-8.789 20.08,-13.468 31.62,-13.468 21.73,0 39.61,14.019 39.61,37.679 0,17.328 -7.42,26.949 -28.59,31.36 -42.09,8.531 -44.3,12.648 -44.3,20.629 0,3.3 3.3,20.628 25.85,20.082 16.52,-0.821 25.87,-12.114 29.99,-28.051 h 6.06 v 30.801 H 4868"
         style="fill:#161a3c;fill-opacity:1;fill-rule:nonzero;stroke:none"
         id="path58"
         inkscape:connector-curvature="0" /><path
         d="m 4911.5,709.27 h 15.68 v -82.231 c 0,-13.199 2.21,-23.93 22.01,-23.93 11,0 24.47,6.321 29.69,16.782 l -4.4,3.031 c -4.39,-5.231 -8.25,-10.184 -15.41,-10.184 -10.44,0 -10.44,7.422 -10.44,12.371 v 84.161 h 24.19 v 6.32 h -24.19 v 34.93 c -6.88,-1.098 -13.75,-1.098 -20.9,-1.098 V 715.59 h -16.23 v -6.32"
         style="fill:#161a3c;fill-opacity:1;fill-rule:nonzero;stroke:none"
         id="path60"
         inkscape:connector-curvature="0" /><path
         d="M 5058.96,606.68 V 613 h -16.23 v 105.34 c -9.91,-2.481 -20.63,-2.75 -30.8,-2.75 h -9.07 v -6.32 h 18.42 v -96.258 h -18.42 v -6.321 h 56.1 z M 5018.53,775 c 0,-7.98 5.23,-14.578 13.2,-14.578 7.98,0 14.02,6.047 14.02,14.578 0,7.148 -7.43,13.199 -14.02,13.199 -6.87,0 -13.2,-6.051 -13.2,-13.199"
         style="fill:#161a3c;fill-opacity:1;fill-rule:evenodd;stroke:none"
         id="path62"
         inkscape:connector-curvature="0" /><path
         d="m 5086.52,709.27 h 15.66 v -82.231 c 0,-13.199 2.21,-23.93 22.01,-23.93 11,0 24.47,6.321 29.69,16.782 l -4.4,3.031 c -4.39,-5.231 -8.25,-10.184 -15.41,-10.184 -10.44,0 -10.44,7.422 -10.44,12.371 v 84.161 h 24.21 v 6.32 h -24.21 v 34.93 c -6.86,-1.098 -13.75,-1.098 -20.9,-1.098 V 715.59 h -16.21 v -6.32"
         style="fill:#161a3c;fill-opacity:1;fill-rule:nonzero;stroke:none"
         id="path64"
         inkscape:connector-curvature="0" /><path
         d="m 5298.3,613.012 h -15.66 v 105.34 c -9.89,-2.481 -20.62,-2.75 -30.79,-2.75 h -6.33 v -6.321 h 15.68 v -61.609 c 0,-19.801 -13.77,-36.031 -33.28,-36.031 -8.26,0 -16.78,3.578 -16.78,20.347 v 86.364 c -9.91,-2.481 -20.62,-2.75 -30.8,-2.75 h -5.5 v -6.321 h 14.84 V 629.52 c 0,-13.2 5.51,-26.68 32.46,-26.68 17.87,0 32.74,9.082 39.88,24.211 h 0.55 V 604.77 c 9.89,1.101 20.07,1.929 29.98,1.929 h 5.75 v 6.321"
         style="fill:#161a3c;fill-opacity:1;fill-rule:nonzero;stroke:none"
         id="path66"
         inkscape:connector-curvature="0" /><path
         d="m 5322.64,709.27 h 15.68 v -82.231 c 0,-13.199 2.22,-23.93 22.02,-23.93 11,0 24.48,6.321 29.69,16.782 l -4.39,3.031 c -4.41,-5.231 -8.25,-10.184 -15.41,-10.184 -10.45,0 -10.45,7.422 -10.45,12.371 v 84.161 h 24.2 v 6.32 h -24.2 v 34.93 c -6.89,-1.098 -13.75,-1.098 -20.9,-1.098 V 715.59 h -16.24 v -6.32"
         style="fill:#161a3c;fill-opacity:1;fill-rule:nonzero;stroke:none"
         id="path68"
         inkscape:connector-curvature="0" /><path
         d="M 699.367,810.711 C 671.336,774.84 650.324,724.281 650.324,659.109 V 357.16 h -222.34 v 453.539 h 271.383"
         style="fill:#161a3c;fill-opacity:1;fill-rule:nonzero;stroke:none"
         id="path70"
         inkscape:connector-curvature="0" /><path
         d="m 2263.89,357.168 h 228.977 V 810.711 H 2263.89 Z"
         style="fill:#161a3c;fill-opacity:1;fill-rule:nonzero;stroke:none"
         id="path72"
         inkscape:connector-curvature="0" /><path
         d="M 858.066,810.711 H 1081.21 V 357.172 H 858.848 v 429.519 c 0,7.887 -0.192,16.289 -0.774,24.02"
         style="fill:#161a3c;fill-opacity:1;fill-rule:nonzero;stroke:none"
         id="path74"
         inkscape:connector-curvature="0" /><path
         d="M 271.875,810.711 C 243.848,774.84 222.848,724.281 222.848,659.109 V 357.16 H 0.507813 V 810.699 H 271.887"
         style="fill:#161a3c;fill-opacity:1;fill-rule:nonzero;stroke:none"
         id="path76"
         inkscape:connector-curvature="0" /><path
         d="m 1604.67,810.711 c -29.63,-44.25 -48.71,-94.992 -48.71,-128.371 V 493.16 c 0,-68.039 71.07,-195.808 170.63,-195.808 54.73,0 77.98,33.199 77.98,82.976 v 411.551 c 0,6.199 -0.27,12.68 -0.75,18.84 h 183.95 c 40.05,-60.91 62.11,-136.481 62.11,-213 0,-170.918 -114.21,-343.508 -295.08,-343.508 -82.98,0 -152.38,48.141 -193.85,121.129 h -4.99 V 0 h -229 v 810.711 h 277.71"
         style="fill:#161a3c;fill-opacity:1;fill-rule:nonzero;stroke:none"
         id="path78"
         inkscape:connector-curvature="0" /></g></g></svg>